<svg id="Layer_1" data-name="Layer 1" xmlns="http://www.w3.org/2000/svg" viewBox="0 0 68.2 31.8">
  <defs>
    <style>
      .cls-1 {
        fill: #c8c0bd;
      }
    </style>
  </defs>
  <g id="Layer_2" data-name="Layer 2">
    <g id="Layer_1-2" data-name="Layer 1-2">
      <g>
        <path class="cls-1" d="M5.3,15.9A10.62,10.62,0,0,0,15.9,26.5h9.7a.9.9,0,0,0,.9-.9V6.2a2.81,2.81,0,0,1,.7-1.7,2.32,2.32,0,0,1,1.7-.7h0A2.45,2.45,0,0,1,31,5L43.1,26.1a.68.68,0,0,0,.5.4.86.86,0,0,0,.7-.1.91.91,0,0,0,.4-.8V6.2a2.81,2.81,0,0,1,.7-1.7,2.32,2.32,0,0,1,1.7-.7h0A2.45,2.45,0,0,1,49.2,5L61.3,26.1a.68.68,0,0,0,.5.4.86.86,0,0,0,.7-.1.91.91,0,0,0,.4-.8V0H59.1V14.7L52.5,3.1A6.31,6.31,0,0,0,47.1,0a6.23,6.23,0,0,0-6.2,6.2v8.5L34.3,3.1A6.31,6.31,0,0,0,28.9,0a6.23,6.23,0,0,0-6.2,6.2V21.9a.9.9,0,0,1-.9.9H15.9a6.8,6.8,0,0,1,0-13.6h5.3V5.3H15.9A10.54,10.54,0,0,0,5.3,15.78Z"/>
        <path class="cls-1" d="M64.5,0V25.7a2.45,2.45,0,0,1-1.2,2.1,2.31,2.31,0,0,1-1.8.2A3.24,3.24,0,0,1,60,26.9L47.9,5.7a.91.91,0,0,0-.8-.4h0a.9.9,0,0,0-.9.9h0V25.7A2.45,2.45,0,0,1,45,27.8a2.31,2.31,0,0,1-1.8.2,3.24,3.24,0,0,1-1.5-1.1L29.7,5.7a.91.91,0,0,0-.8-.4h0a.71.71,0,0,0-.6.3.83.83,0,0,0-.3.6V25.7a2.43,2.43,0,0,1-2.4,2.4H15.9a12.2,12.2,0,0,1,0-24.4h5.3V0H15.9a15.9,15.9,0,0,0,0,31.8h9.7a6.23,6.23,0,0,0,6.2-6.2V17.1l6.6,11.6a6.31,6.31,0,0,0,5.4,3.1A6.23,6.23,0,0,0,50,25.6V17.1l6.6,11.6A6.31,6.31,0,0,0,62,31.8a6.23,6.23,0,0,0,6.2-6.2V0Z"/>
      </g>
    </g>
  </g>
</svg>
