<svg xmlns="http://www.w3.org/2000/svg" viewBox="0 0 175.71 15.38">
  <defs>
    <style>
      .cls-1 {
        fill: #fff;
      }
    </style>
  </defs>
  <g id="Layer_2" data-name="Layer 2">
    <g id="Layer_1-2" data-name="Layer 1">
      <g id="ilawyer">
        <path id="Path_1" data-name="Path 1" class="cls-1" d="M45.23,0H46V.85a.84.84,0,0,1-.74.93.6.6,0,0,1-.23,0h-.78V.94A.84.84,0,0,1,45,0Zm-1,4.1A.84.84,0,0,1,45,3.18a.81.81,0,0,1,.22,0H46v8.88h-.78a.85.85,0,0,1-1-.71,1.62,1.62,0,0,1,0-.22Z"/>
        <path id="Path_2" data-name="Path 2" class="cls-1" d="M50.45,10.26a1.2,1.2,0,0,0,.83.3v.8a.66.66,0,0,1-.54.73,1.09,1.09,0,0,1-.88-.1,2.41,2.41,0,0,1-1.1-1,3.28,3.28,0,0,1-.47-1.8V.94A.84.84,0,0,1,49,0h1v9.2A1.33,1.33,0,0,0,50.45,10.26Z"/>
        <path id="Path_3" data-name="Path 3" class="cls-1" d="M59.42,3.94a3.34,3.34,0,0,1,1.3,2.65v5.47H60.2a1.07,1.07,0,0,1-1-.71,3.76,3.76,0,0,1-2.7,1,4.39,4.39,0,0,1-2.9-1,3.33,3.33,0,0,1-1.3-2.64V6.59a3.35,3.35,0,0,1,1.3-2.65,4.39,4.39,0,0,1,2.9-1A4.48,4.48,0,0,1,59.42,3.94Zm-2.9.73a2.73,2.73,0,0,0-1.8.63,1.65,1.65,0,0,0-.66,1.29V8.65a1.67,1.67,0,0,0,.66,1.3,3,3,0,0,0,3.59,0A1.67,1.67,0,0,0,59,8.65V6.59a1.66,1.66,0,0,0-.66-1.29,2.73,2.73,0,0,0-1.8-.63Z"/>
        <path id="Path_4" data-name="Path 4" class="cls-1" d="M73.27,4.11A.85.85,0,0,1,74,3.18h1V8.65a3.72,3.72,0,0,1-.93,2.68,3.46,3.46,0,0,1-2.59,1,3.32,3.32,0,0,1-2.64-1.14,3.76,3.76,0,0,1-5.24.14,3.68,3.68,0,0,1-.93-2.67V4.11a.85.85,0,0,1,.74-.93h1V8.65a2,2,0,0,0,.45,1.45,2.06,2.06,0,0,0,2.61,0A2,2,0,0,0,68,8.65V4.11a.84.84,0,0,1,.74-.93h1V8.65a2,2,0,0,0,.5,1.44,2.06,2.06,0,0,0,2.61,0,2,2,0,0,0,.45-1.44V4.11Z"/>
        <path id="Path_5" data-name="Path 5" class="cls-1" d="M84.76,3.19l-3.42,9.74-.26.67a2.51,2.51,0,0,1-.28.57,2.45,2.45,0,0,1-1,.88,1.4,1.4,0,0,1-.9.1.67.67,0,0,1-.52-.74v-.8a1.38,1.38,0,0,0,.59-.14.7.7,0,0,0,.43-.44l.35-.89a1.36,1.36,0,0,1-1.06-.85L76.14,4a.61.61,0,0,1,0-.56.53.53,0,0,1,.5-.25h1.09l2.57,7.34h0l2.35-6.67a.9.9,0,0,1,.91-.67h1.18Z"/>
        <path id="Path_6" data-name="Path 6" class="cls-1" d="M91.86,3.36A3.75,3.75,0,0,1,93,4.29a2.58,2.58,0,0,1,.48,1.54,2.62,2.62,0,0,1-.29,1.31,2.74,2.74,0,0,1-.75.84,3.08,3.08,0,0,1-1,.5,4,4,0,0,1-1.14.16H88.09a1.67,1.67,0,0,1-.32,0,.57.57,0,0,1-.28-.14v.73a1.1,1.1,0,0,0,.62,1,2.39,2.39,0,0,0,1.19.35,3.55,3.55,0,0,0,1.26-.08,2.3,2.3,0,0,0,.83-.37l.23-.21a.79.79,0,0,1,1-.16l.84.42a3.11,3.11,0,0,1-.65,1,3.71,3.71,0,0,1-1.49.91,5,5,0,0,1-1.71.28,6.8,6.8,0,0,1-1.35-.14A4.14,4.14,0,0,1,87,11.65a2.85,2.85,0,0,1-1-1.17A3.64,3.64,0,0,1,85.74,9V6.07A3.17,3.17,0,0,1,86,4.78a3,3,0,0,1,1.47-1.43,4.34,4.34,0,0,1,2-.44A5.27,5.27,0,0,1,91.86,3.36Zm-.64,3.3a1,1,0,0,0,.37-1.29,1.09,1.09,0,0,0-.21-.26,2.59,2.59,0,0,0-1.28-.44,5.35,5.35,0,0,0-1.33.1,2,2,0,0,0-.88.42,1.08,1.08,0,0,0-.4.84v.84h2.88a1.58,1.58,0,0,0,.85-.21Z"/>
        <path id="Path_7" data-name="Path 7" class="cls-1" d="M95,6.3a2.9,2.9,0,0,1,2.68-3.11h1.45V4c0,.65-.3,1-.9,1H98a1.3,1.3,0,0,0-.83.3,1.34,1.34,0,0,0-.42,1v5.76H96a.83.83,0,0,1-1-.7.81.81,0,0,1,0-.22V6.3Z"/>
        <path id="Path_8" data-name="Path 8" class="cls-1" d="M110.55,5.13a1.8,1.8,0,0,0-1.33-.46,1.67,1.67,0,0,0-1.28.49,2.09,2.09,0,0,0-.5,1.43v5.47h-.77a.83.83,0,0,1-1-.7.55.55,0,0,1,0-.22V6.59a2.07,2.07,0,0,0-.48-1.43,1.71,1.71,0,0,0-1.28-.49,1.76,1.76,0,0,0-1.33.46,2.09,2.09,0,0,0-.45,1.46v5.47h-.78a.83.83,0,0,1-1-.7.81.81,0,0,1,0-.22V6.59a3.76,3.76,0,0,1,.93-2.67,3.31,3.31,0,0,1,2.59-1,3.4,3.4,0,0,1,2.3.82,3.61,3.61,0,0,1,.35.33c.12-.12.22-.24.32-.33a3.77,3.77,0,0,1,4.91.19,3.76,3.76,0,0,1,.93,2.67v5.47H112a.85.85,0,0,1-1-.7.81.81,0,0,1,0-.22V6.59A2.15,2.15,0,0,0,110.55,5.13Z"/>
        <path id="Path_9" data-name="Path 9" class="cls-1" d="M121.54,3.94a3.31,3.31,0,0,1,1.3,2.65v5.47h-.52a1.07,1.07,0,0,1-1-.71,3.84,3.84,0,0,1-2.7,1,4.39,4.39,0,0,1-2.9-1,3.33,3.33,0,0,1-1.3-2.64V6.59a3.35,3.35,0,0,1,1.3-2.65,4.39,4.39,0,0,1,2.9-1A4.44,4.44,0,0,1,121.54,3.94Zm-2.9.73a2.68,2.68,0,0,0-1.8.63,1.65,1.65,0,0,0-.66,1.29V8.66a1.66,1.66,0,0,0,.66,1.29,3,3,0,0,0,3.59,0,1.66,1.66,0,0,0,.66-1.29V6.59a1.66,1.66,0,0,0-.66-1.29,2.72,2.72,0,0,0-1.79-.63Z"/>
        <path id="Path_10" data-name="Path 10" class="cls-1" d="M124.81,6.3a2.9,2.9,0,0,1,2.68-3.11h1.44V4c0,.65-.29,1-.9,1h-.24a1.34,1.34,0,0,0-.83.3,1.34,1.34,0,0,0-.41,1v5.76h-.78a.83.83,0,0,1-1-.7,1.62,1.62,0,0,1,0-.22Z"/>
        <path id="Path_11" data-name="Path 11" class="cls-1" d="M130.33.94a.84.84,0,0,1,.75-.93h1V6.87h.64c.34,0,.67,0,.88-.33l1.64-2.72a1.19,1.19,0,0,1,1-.63h1.37l-2.09,3.45a2.9,2.9,0,0,1-.35.49,2.68,2.68,0,0,1,1.32,1.47l1.5,3.46h-1.13a1,1,0,0,1-1-.56l-.95-2.2a1,1,0,0,0-1-.66h-1.88v3.42h-.78a.84.84,0,0,1-1-.7.6.6,0,0,1,0-.23V.94Z"/>
        <path id="Path_12" data-name="Path 12" class="cls-1" d="M145.19,3.36a3.75,3.75,0,0,1,1.09.93,2.58,2.58,0,0,1,.48,1.54,2.62,2.62,0,0,1-.29,1.31,2.84,2.84,0,0,1-.74.84,3.22,3.22,0,0,1-1.06.5,4,4,0,0,1-1.14.16h-2.1a1.83,1.83,0,0,1-.33,0,.62.62,0,0,1-.28-.14v.73a1.1,1.1,0,0,0,.62,1,2.39,2.39,0,0,0,1.19.35,3.62,3.62,0,0,0,1.27-.08,1.84,1.84,0,0,0,1-.58.79.79,0,0,1,1-.16l.84.42a3,3,0,0,1-.65,1,3.71,3.71,0,0,1-1.49.91,5,5,0,0,1-1.71.28,6.88,6.88,0,0,1-1.35-.14,4.14,4.14,0,0,1-1.26-.54,2.85,2.85,0,0,1-1-1.17A3.63,3.63,0,0,1,139.08,9V6.07a3,3,0,0,1,1.76-2.72,4.37,4.37,0,0,1,2-.44A5.27,5.27,0,0,1,145.19,3.36Zm-.64,3.3a.94.94,0,0,0,.37-1.29.89.89,0,0,0-.21-.26,2.55,2.55,0,0,0-1.28-.44,5.39,5.39,0,0,0-1.33.1,2.05,2.05,0,0,0-.88.42,1.11,1.11,0,0,0-.4.84v.84h2.88a1.58,1.58,0,0,0,.85-.21Z"/>
        <path id="Path_13" data-name="Path 13" class="cls-1" d="M152.26,3.19V4c0,.65-.31,1-.92,1H150.2V9.21a1.34,1.34,0,0,0,.42,1,1.2,1.2,0,0,0,.81.3v.8a.66.66,0,0,1-.52.73,1.18,1.18,0,0,1-.9-.1,2.57,2.57,0,0,1-1.11-1,3.41,3.41,0,0,1-.44-1.8V.94a.83.83,0,0,1,.71-.93h1V3.19Z"/>
        <path id="Path_14" data-name="Path 14" class="cls-1" d="M154.68,0h.77V.85a.84.84,0,0,1-.74.93.55.55,0,0,1-.22,0h-.78V.94a.84.84,0,0,1,.74-.93Zm-1,4.1a.84.84,0,0,1,.74-.93.89.89,0,0,1,.23,0h.77v8.88h-.77a.86.86,0,0,1-1-.71.81.81,0,0,1,0-.22Z"/>
        <path id="Path_15" data-name="Path 15" class="cls-1" d="M158.82,3.91a4.08,4.08,0,0,1,2.77-1,4.14,4.14,0,0,1,2.78,1,3.22,3.22,0,0,1,1.22,2.53v5.62h-.77a.83.83,0,0,1-1-.7.55.55,0,0,1,0-.22V6.44a1.53,1.53,0,0,0-.6-1.19,2.67,2.67,0,0,0-3.32,0,1.53,1.53,0,0,0-.6,1.19v5.62h-.77a.85.85,0,0,1-1-.7.81.81,0,0,1,0-.22V6.44A3.19,3.19,0,0,1,158.82,3.91Z"/>
        <path id="Path_16" data-name="Path 16" class="cls-1" d="M174.4,3.94a3.28,3.28,0,0,1,1.3,2.65V12a3.25,3.25,0,0,1-.32,1.47,3.57,3.57,0,0,1-2.2,1.73,5.52,5.52,0,0,1-1.52.21,6.88,6.88,0,0,1-1.35-.14,1.29,1.29,0,0,1-.81-.46.93.93,0,0,1,0-.73l.15-.7a4.06,4.06,0,0,0,1.54.3,5.32,5.32,0,0,0,1.54-.17A1.48,1.48,0,0,0,174,12v-.35a4.62,4.62,0,0,1-5.35-.34,3.24,3.24,0,0,1-1.3-2.63V6.59a3.28,3.28,0,0,1,1.3-2.65,4.39,4.39,0,0,1,2.9-1A4.43,4.43,0,0,1,174.4,3.94Zm-2.9.73a2.71,2.71,0,0,0-1.8.63,1.67,1.67,0,0,0-.65,1.29V8.65a1.69,1.69,0,0,0,.65,1.3,3,3,0,0,0,3.6,0,1.66,1.66,0,0,0,.65-1.3V6.59a1.65,1.65,0,0,0-.65-1.29,2.73,2.73,0,0,0-1.8-.63Z"/>
        <g id="Group_1" data-name="Group 1">
          <path id="Path_17" data-name="Path 17" class="cls-1" d="M3.45,6.52C3.46,5.76,3.39,5,2.53,5c-.53,0-.87.22-.87.8s.4.9.9,1.21a16.42,16.42,0,0,1,1.91,1.4,2.28,2.28,0,0,1,.71,1.79A2.33,2.33,0,0,1,3,12.67a3,3,0,0,1-.42,0A2.28,2.28,0,0,1,0,10.7a2.22,2.22,0,0,1,0-.63V9.45H1.59V10c0,.82.22,1.43,1,1.43a.89.89,0,0,0,1-1,1.33,1.33,0,0,0-.63-1.13,12,12,0,0,1-2.48-2A2.47,2.47,0,0,1,0,6C0,4.52.85,3.73,2.52,3.73,5,3.73,5,5.68,5,6.52Z"/>
          <path id="Path_18" data-name="Path 18" class="cls-1" d="M6.94,12.45V3.94H8.51v8.51Z"/>
          <path id="Path_19" data-name="Path 19" class="cls-1" d="M9.93,3.94h5.24V5.18H13.34v7.27H11.77V5.18H9.93Z"/>
          <path id="Path_20" data-name="Path 20" class="cls-1" d="M16.52,12.45V3.94h4.42V5.18H18.09V7.33h2.63V8.58H18.09V11.2h2.85v1.25Z"/>
          <path id="Path_21" data-name="Path 21" class="cls-1" d="M25.85,12.45V3.94h2.54a2,2,0,0,1,1.78.62,2.26,2.26,0,0,1,.42,1.53,1.64,1.64,0,0,1-1,1.78v0c.88.12,1.22.87,1.22,2a4.17,4.17,0,0,1-.11,1.05,1.9,1.9,0,0,1-2.07,1.53Zm1.86-5.07c.39,0,.88,0,1.13-.3A1.64,1.64,0,0,0,29,6.16c0-.64-.13-1-.85-1h-.73V7.37Zm.05,3.82a2.29,2.29,0,0,0,.94-.09c.43-.19.48-.75.48-1.18C29.18,9,29,8.62,28,8.62h-.61V11.2Z"/>
          <path id="Path_22" data-name="Path 22" class="cls-1" d="M34.55,6.17a5.44,5.44,0,0,1,.37,1.31h0a7.09,7.09,0,0,1,.51-1.62l.75-1.93h1.72l-2.22,4.9v3.62H34.14V8.83L32,3.94h1.71Z"/>
        </g>
      </g>
    </g>
  </g>
</svg>
