<svg xmlns="http://www.w3.org/2000/svg" viewBox="0 0 19.5 19.15">
  <defs>
    <style>
      .cls-1 {
        fill: #fff;
      }
    </style>
  </defs>
  <g id="Layer_2" data-name="Layer 2">
    <g id="Layer_1-2" data-name="Layer 1">
      <path id="LinkedIn" class="cls-1" d="M19.5,11.74v7.41H15.32V12.24c0-1.74-.6-2.92-2.11-2.92a2.29,2.29,0,0,0-2.15,1.57,3.07,3.07,0,0,0-.13,1v7.22H6.75s0-11.7,0-12.92h4.18V8.06l0,0h0v0a4.11,4.11,0,0,1,3.76-2.13C17.44,5.93,19.5,7.77,19.5,11.74ZM2.38,0A2.24,2.24,0,1,0,2.1,4.47h.25A2.23,2.23,0,0,0,2.61,0ZM.26,19.15H4.44V6.23H.26Z"/>
    </g>
  </g>
</svg>
