<?xml version="1.0" encoding="utf-8"?>
<!-- Generator: Adobe Illustrator 24.1.2, SVG Export Plug-In . SVG Version: 6.00 Build 0)  -->
<svg version="1.1" id="Layer_1" xmlns="http://www.w3.org/2000/svg" xmlns:xlink="http://www.w3.org/1999/xlink" x="0px" y="0px"
	 width="206.7px" height="40px" viewBox="0 0 206.7 40" style="enable-background:new 0 0 206.7 40;" xml:space="preserve">
<style type="text/css">
	.st3-news{fill:#CC0000;}
</style>
<g>
	<path class="st3-news" d="M74.5,20c0,5.9,4.8,10.6,10.6,10.6h9.7c0.5,0,0.9-0.4,0.9-0.9V10.3c0-0.6,0.3-1.2,0.7-1.7
		c0.5-0.5,1.1-0.7,1.7-0.7c0,0,0,0,0,0c0.9,0,1.7,0.5,2.1,1.2l12.1,21.1c0.1,0.2,0.3,0.4,0.5,0.4c0.2,0.1,0.5,0,0.7-0.1
		c0.3-0.2,0.4-0.5,0.4-0.8V10.3c0-0.6,0.3-1.2,0.7-1.7c0.5-0.5,1.1-0.7,1.7-0.7c0,0,0,0,0,0c0.9,0,1.7,0.5,2.1,1.2l12.1,21.1
		c0.1,0.2,0.3,0.4,0.5,0.4c0.2,0.1,0.5,0,0.7-0.1c0.3-0.2,0.4-0.5,0.4-0.8V4.1h-3.8v14.7l-6.6-11.6c-1.1-1.9-3.2-3.1-5.4-3.1
		c-3.4,0-6.2,2.8-6.2,6.2v8.5l-6.6-11.6c-1.1-1.9-3.2-3.1-5.4-3.1c-3.4,0-6.2,2.8-6.2,6.2v15.7c0,0.5-0.4,0.9-0.9,0.9h-5.9
		c-3.8,0-6.8-3.1-6.8-6.8s3.1-6.8,6.8-6.8h5.3V9.4h-5.3C79.2,9.4,74.5,14.1,74.5,20z"/>
	<path class="st3-news" d="M133.7,4.1v25.7c0,0.9-0.5,1.7-1.2,2.1c-0.6,0.3-1.2,0.4-1.8,0.2c-0.6-0.2-1.1-0.6-1.5-1.1L117.1,9.8
		c-0.2-0.3-0.5-0.4-0.8-0.4c0,0,0,0,0,0c-0.5,0-0.9,0.4-0.9,0.9v19.5c0,0.9-0.5,1.7-1.2,2.1c-0.6,0.3-1.2,0.4-1.8,0.2
		c-0.6-0.2-1.1-0.6-1.5-1.1L98.9,9.8c-0.2-0.3-0.5-0.4-0.8-0.4c0,0,0,0,0,0c-0.2,0-0.5,0.1-0.6,0.3c-0.2,0.2-0.3,0.4-0.3,0.6v19.5
		c0,1.3-1.1,2.4-2.4,2.4h-9.7c-6.7,0-12.2-5.5-12.2-12.2S78.4,7.8,85.1,7.8h5.3V4.1h-5.3c-8.8,0-15.9,7.1-15.9,15.9
		s7.1,15.9,15.9,15.9h9.7c3.4,0,6.2-2.8,6.2-6.2v-8.5l6.6,11.6c1.1,1.9,3.2,3.1,5.4,3.1c3.4,0,6.2-2.8,6.2-6.2v-8.5l6.6,11.6
		c1.1,1.9,3.2,3.1,5.4,3.1c3.4,0,6.2-2.8,6.2-6.2V4.1H133.7z"/>
</g>
</svg>
