<svg id="Layer_1" data-name="Layer 1" xmlns="http://www.w3.org/2000/svg" viewBox="0 0 203.9 31.5">
  <defs>
    <style>
      .cls-1-today {
        fill: #000105;
      }

      .cls-2-today {
        fill: #f27123;
      }
    </style>
  </defs>
  <g>
    <g>
      <polygon class="cls-1-today" points="67.6 10.3 75.1 10.3 75.1 30.9 82.2 30.9 82.2 10.3 89.6 10.3 89.6 4.1 67.6 4.1 67.6 10.3"/>
      <g>
        <path class="cls-1-today" d="M110.1,28.9a7.17,7.17,0,0,1-2.9.6,7.31,7.31,0,0,1-3-.6,6,6,0,0,1-2.2-1.6,7.22,7.22,0,0,1-1.4-2.4,9.25,9.25,0,0,1,0-6,7.22,7.22,0,0,1,1.4-2.4,6.91,6.91,0,0,1,2.2-1.6,7.31,7.31,0,0,1,3-.6,6.53,6.53,0,0,1,2.9.6,6,6,0,0,1,2.2,1.6,7.22,7.22,0,0,1,1.4,2.4,9.25,9.25,0,0,1,0,6,7.22,7.22,0,0,1-1.4,2.4,8.88,8.88,0,0,1-2.2,1.6m7.2-17A15.12,15.12,0,0,0,112.8,9a16.75,16.75,0,0,0-11.4,0,12.47,12.47,0,0,0-4.5,2.9,12.3,12.3,0,0,0-3,4.4,14.8,14.8,0,0,0,0,11.2,12.3,12.3,0,0,0,3,4.4,15.12,15.12,0,0,0,4.5,2.9,14.84,14.84,0,0,0,5.7,1,15.55,15.55,0,0,0,5.7-1,12.47,12.47,0,0,0,4.5-2.9,12.3,12.3,0,0,0,3-4.4,14.8,14.8,0,0,0,0-11.2,12.3,12.3,0,0,0-3-4.4" transform="translate(-1.4 -4.3)"/>
        <path class="cls-1-today" d="M144.2,21.8a8.68,8.68,0,0,1-.5,2.8,6.78,6.78,0,0,1-1.4,2.3,6.34,6.34,0,0,1-2.3,1.6,7.45,7.45,0,0,1-3.1.6h-4.2V14.6h4.2a10.23,10.23,0,0,1,3.2.5,7.63,7.63,0,0,1,2.3,1.5,5.94,5.94,0,0,1,1.4,2.3,14.46,14.46,0,0,1,.4,2.9m3.1-9.8a16,16,0,0,0-4.6-2.7,18.08,18.08,0,0,0-5.8-.9H125.7V35.2H137a18.08,18.08,0,0,0,5.8-.9,12.59,12.59,0,0,0,7.6-6.9,14,14,0,0,0,1.1-5.6,14,14,0,0,0-1.1-5.6,14.32,14.32,0,0,0-3.1-4.2" transform="translate(-1.4 -4.3)"/>
      </g>
      <path class="cls-1-today" d="M169.6,25.2h-6.5l3.2-9.6Zm1.1-16.8H162L152,35l-.1.1h8l1.3-3.8h10.3l1.3,3.8h8L170.7,8.4Z" transform="translate(-1.4 -4.3)"/>
      <polygon class="cls-1-today" points="195.8 4.1 190.2 13.8 184.5 4.2 184.5 4.1 176.5 4.1 186.7 20.1 186.7 30.9 193.7 30.9 193.7 20.1 203.9 4.1 195.8 4.1"/>
    </g>
    <g>
      <path class="cls-2-today" d="M32.3,4.3A31,31,0,0,0,1.4,33.6v1.6h8a9.15,9.15,0,0,1,.1-1.6,22.85,22.85,0,0,1,45.6.2v1.4h8V33.9A30.77,30.77,0,0,0,32.3,4.3" transform="translate(-1.4 -4.3)"/>
      <path class="cls-2-today" d="M32.3,14.6A20.65,20.65,0,0,0,11.7,33.8v1.4h8a7.57,7.57,0,0,1,.1-1.5,12.58,12.58,0,0,1,25,.1,6.15,6.15,0,0,1,.1,1.4h8V33.9A20.74,20.74,0,0,0,32.3,14.6" transform="translate(-1.4 -4.3)"/>
      <path class="cls-2-today" d="M32.3,24.9a10.31,10.31,0,0,0-10.1,8.3,6.8,6.8,0,0,0-.2,2H42.6a7.57,7.57,0,0,0-.1-1.5,10.26,10.26,0,0,0-10.2-8.8" transform="translate(-1.4 -4.3)"/>
    </g>
  </g>
</svg>
