<svg xmlns="http://www.w3.org/2000/svg" viewBox="0 0 124.89 30.8">
  <defs>
    <style>
      .cls-1 {
        fill: #c00;
      }
    </style>
  </defs>
  <g id="Layer_2" data-name="Layer 2">
    <g id="Layer_1-2" data-name="Layer 1">
      <path class="cls-1" d="M40.7,0C36,0,33,2.4,32.5,6.1c-.1.8-.2,1.7-.3,2.5H92.7s.1-.9.2-1.6c.5-3.7-1.1-7-6.8-7H40.7ZM3.8,0,2.7,8.7H30.1L31.2,0ZM95.9,0,94.8,8.7h29.8a8.39,8.39,0,0,1,.2-1.3c.7-5.7-2.9-7.3-6.5-7.3H95.9ZM94.4,11.9,92.1,30.8h10.3l2.3-18.9Zm19.6,0-2.3,18.9H122l2.3-18.9ZM2.3,11.9,0,30.8H27.5l1-8.2H11.3l.4-3.5H28.9l.9-7.2Zm29.5,0c-.8,4.9,1.7,7.2,5.2,7.2H50.9l-.4,3.5h-20l-1,8.2H52.1c.7-.1,5.8-.2,7.5-4.4.6-1.4,1.1-6.2,1.2-7.2.8-5.9-3.3-7.3-6.5-7.3Zm32,0L61.5,30.8H71.8l1.4-11.7H86.1c3.7,0,5.6-2,6-4.6.1-.8.2-1.7.3-2.6Z"/>
    </g>
  </g>
</svg>
