<svg xmlns="http://www.w3.org/2000/svg" width="394.249" height="57.823" viewBox="0 0 394.249 57.823"><path d="M7,7V64.823H401.249V7ZM375.542,8.048h3.453v14.39h17.029V8.048h3.453V40.042h-3.453V25.7H378.995V40.042h-3.453Zm-27.557,3.693q3.717-4.125,11.1-4.125a22.123,22.123,0,0,1,9.737,2.351v3.309a19.665,19.665,0,0,0-9.353-2.4q-6.045,0-8.826,3.166t-2.782,9.977q0,6.859,2.758,10t8.85,3.142a19.073,19.073,0,0,0,9.353-2.351v3.31a22.708,22.708,0,0,1-9.737,2.3q-7.387,0-11.1-4.126t-3.718-12.279Q344.267,15.867,347.985,11.741Zm-29.86,22.305a14.165,14.165,0,0,0,4.341,2.374,17.2,17.2,0,0,0,5.828.936,7.851,7.851,0,0,0,5.229-1.487,5.045,5.045,0,0,0,1.726-4.03,4.7,4.7,0,0,0-1.007-3.093,7.313,7.313,0,0,0-2.4-1.919q-1.392-.7-4.173-1.751a34.45,34.45,0,0,1-4.725-1.919,8.385,8.385,0,0,1-3-2.686,8.02,8.02,0,0,1-1.247-4.7,8.161,8.161,0,0,1,.983-3.838,7.83,7.83,0,0,1,3.166-3.118,11.279,11.279,0,0,1,5.636-1.247,14.837,14.837,0,0,1,4.149.48,29.323,29.323,0,0,1,4.245,1.775v3.549l-1.8-1.031a11.634,11.634,0,0,0-3.021-1.223,14.126,14.126,0,0,0-3.382-.384,7.359,7.359,0,0,0-4.893,1.367,4.344,4.344,0,0,0-1.583,3.43,5.01,5.01,0,0,0,.84,3.022,6.207,6.207,0,0,0,2.254,1.87,30.542,30.542,0,0,0,4.005,1.583A35.512,35.512,0,0,1,334.17,24a9.335,9.335,0,0,1,3.238,2.806,7.642,7.642,0,0,1,1.343,4.653,8.96,8.96,0,0,1-2.518,6.427q-2.519,2.638-8.083,2.638a18,18,0,0,1-5.276-.623,29.213,29.213,0,0,1-4.749-2.111ZM288,8.048h26.046V11.31H302.776V40.042h-3.454V11.31H288ZM106.348,7.985h3.46V36.678H126.2v3.364H106.348Zm-32.057,0H84.336q7.5,0,11.27,4.013T99.379,23.99q0,16.052-15.043,16.052H74.291Zm-27.923,0H66.6v3.268H49.828V22.307H64.583v3.365H49.828v11.1H66.6v3.268H46.368Zm-11.631,0H38.2V40.042h-3.46Zm-25.9,0H28.489v3.268h-16.2V22.307H26.519v3.365H12.293v14.37H8.832ZM128.34,58.593,8.33,58.586a.693.693,0,1,1,0-1.387l120.01.007a.693.693,0,1,1,0,1.387Zm21.694,5.479-1.562-4.061h-5.623l-1.562,4.061h-1.523l5.194-13.023h1.405l5.174,13.023Zm1.683-52.819H134.944V22.307H149.7v3.365H134.944v11.1h16.773v3.268H131.484V7.985h20.233Zm12.765,41.124h-4.588V64.072h-1.406V52.377H153.88V51.049h10.6Zm14.117,0H174.01V64.072h-1.4V52.377H168V51.049h10.6Zm-7.561-25.264h-8.171V40.042h-3.46V7.985h13.169q4.662,0,7.065,2.355t2.4,6.969a9.9,9.9,0,0,1-1.971,6.248,8.414,8.414,0,0,1-5.287,3.172l8.7,13.313H179.4Zm21.785,35.466a6.511,6.511,0,0,1-8.748,0A7.428,7.428,0,0,1,182.6,57.57a7.427,7.427,0,0,1,1.474-5.008,6.511,6.511,0,0,1,8.748,0A7.427,7.427,0,0,1,194.3,57.57,7.428,7.428,0,0,1,192.823,62.579Zm5.241-54.531h10.025q7.483,0,11.248,4.005T223.1,24.021q0,16.02-15.014,16.021H198.064Zm9.919,56.024-3.4-5.252h-3.319v5.252h-1.406V51.049h5.35a3.938,3.938,0,0,1,2.87.957,3.792,3.792,0,0,1,.976,2.831,4.028,4.028,0,0,1-.8,2.538,3.418,3.418,0,0,1-2.148,1.289l3.534,5.408Zm17.709,0h-1.581L216.32,53.1V64.072h-1.405V51.049h1.6l7.771,10.973V51.049h1.4Zm4.366-56.024h20.194V11.31H233.511V22.342h14.726V25.7H233.511V36.78h16.741v3.262H230.058Zm9.907,44.329h-6.814v4.491h5.994v1.366h-5.994v4.511h6.814v1.327h-8.22V51.049h8.22Zm10.7,5.721v5.974h-1.4V58.1L244.4,51.049h1.7l3.846,5.7,3.866-5.7h1.7Zm16.548,5.1a4.378,4.378,0,0,1-3.29,1.073,7.347,7.347,0,0,1-2.148-.253,12,12,0,0,1-1.933-.859V61.632a5.793,5.793,0,0,0,1.767.966,7,7,0,0,0,2.372.381,3.2,3.2,0,0,0,2.129-.6,2.056,2.056,0,0,0,.7-1.64,1.913,1.913,0,0,0-.41-1.26,2.971,2.971,0,0,0-.976-.781q-.565-.283-1.7-.712A14.17,14.17,0,0,1,261.8,57.2a3.417,3.417,0,0,1-1.22-1.094,3.264,3.264,0,0,1-.508-1.913,3.316,3.316,0,0,1,.4-1.562,3.173,3.173,0,0,1,1.288-1.269,4.585,4.585,0,0,1,2.294-.508,6.052,6.052,0,0,1,1.689.195,11.881,11.881,0,0,1,1.728.723v1.444l-.732-.419a4.73,4.73,0,0,0-1.23-.5,5.757,5.757,0,0,0-1.376-.156,3,3,0,0,0-1.992.556,1.766,1.766,0,0,0-.644,1.4,2.043,2.043,0,0,0,.341,1.23,2.535,2.535,0,0,0,.918.762,12.44,12.44,0,0,0,1.63.644,14.4,14.4,0,0,1,1.982.81,3.808,3.808,0,0,1,1.318,1.142,3.107,3.107,0,0,1,.547,1.894A3.651,3.651,0,0,1,267.212,63.194Zm-6-26.174q-3.285-3.5-3.285-10.025V8.048h3.453V27.187q0,10.073,9.066,10.073,9.162,0,9.162-10.073V8.048h3.357V27q0,6.523-3.285,10.025t-9.234,3.5Q264.5,40.521,261.212,37.02ZM399.694,58.593l-120.01-.007a.693.693,0,1,1,0-1.387l120.01.007a.693.693,0,1,1,0,1.387Z" transform="translate(-7 -7)" fill="none"/><path d="M174.786,26.729a8.414,8.414,0,0,0,5.287-3.172,9.9,9.9,0,0,0,1.971-6.248q0-4.614-2.4-6.969t-7.065-2.355H159.407V40.042h3.46V27.113h8.171L179.4,40.042h4.085Zm-3.8-2.884h-8.123V11.253h9.324q3.509,0,4.95,1.61a6.806,6.806,0,0,1,1.442,4.686,5.9,5.9,0,0,1-1.826,4.71Q174.93,23.846,170.99,23.845Z" transform="translate(-7 -7)" fill="#ff0300"/><path d="M131.484,40.042h20.234V36.774H134.944v-11.1H149.7V22.307H134.944V11.253h16.773V7.985H131.484Z" transform="translate(-7 -7)" fill="#ff0300"/><path d="M126.2,36.678H109.808V7.985h-3.46V40.042H126.2Z" transform="translate(-7 -7)" fill="#ff0300"/><path d="M99.379,23.99q0-7.979-3.773-11.992T84.336,7.985H74.291V40.042H84.336Q99.379,40.042,99.379,23.99ZM77.752,36.774V11.2H84.1q6.1,0,8.915,3.076t2.811,9.709q0,6.631-2.811,9.708T84.1,36.774Z" transform="translate(-7 -7)" fill="#ff0300"/><path d="M66.6,36.774H49.828v-11.1H64.583V22.307H49.828V11.253H66.6V7.985H46.368V40.042H66.6Z" transform="translate(-7 -7)" fill="#ff0300"/><rect width="3.46" height="32.057" transform="translate(27.737 0.985)" fill="#ff0300"/><path d="M12.293,25.672H26.519V22.307H12.293V11.253h16.2V7.985H8.832V40.042h3.46Z" transform="translate(-7 -7)" fill="#ff0300"/><path d="M379,25.7h17.028V40.042h3.454V8.048h-3.454v14.39H379V8.048h-3.454V40.042H379Z" transform="translate(-7 -7)" fill="#030001"/><path d="M359.089,40.426a22.708,22.708,0,0,0,9.737-2.3v-3.31a19.073,19.073,0,0,1-9.353,2.351q-6.093,0-8.85-3.142t-2.758-10q0-6.812,2.782-9.977t8.826-3.166a19.665,19.665,0,0,1,9.353,2.4V9.967a22.123,22.123,0,0,0-9.737-2.351q-7.387,0-11.1,4.125t-3.718,12.28q0,8.154,3.718,12.279T359.089,40.426Z" transform="translate(-7 -7)" fill="#030001"/><path d="M328.15,40.521q5.565,0,8.083-2.638a8.96,8.96,0,0,0,2.518-6.427,7.642,7.642,0,0,0-1.343-4.653A9.335,9.335,0,0,0,334.17,24a35.512,35.512,0,0,0-4.869-1.991,30.542,30.542,0,0,1-4.005-1.583,6.207,6.207,0,0,1-2.254-1.87,5.01,5.01,0,0,1-.84-3.022,4.344,4.344,0,0,1,1.583-3.43,7.359,7.359,0,0,1,4.893-1.367,14.126,14.126,0,0,1,3.382.384,11.634,11.634,0,0,1,3.021,1.223l1.8,1.031V9.823a29.323,29.323,0,0,0-4.245-1.775,14.837,14.837,0,0,0-4.149-.48,11.279,11.279,0,0,0-5.636,1.247,7.83,7.83,0,0,0-3.166,3.118,8.161,8.161,0,0,0-.983,3.838,8.02,8.02,0,0,0,1.247,4.7,8.385,8.385,0,0,0,3,2.686,34.45,34.45,0,0,0,4.725,1.919q2.781,1.056,4.173,1.751a7.313,7.313,0,0,1,2.4,1.919,4.7,4.7,0,0,1,1.007,3.093,5.045,5.045,0,0,1-1.726,4.03,7.851,7.851,0,0,1-5.229,1.487,17.2,17.2,0,0,1-5.828-.936,14.165,14.165,0,0,1-4.341-2.374v3.741a29.213,29.213,0,0,0,4.749,2.111A18,18,0,0,0,328.15,40.521Z" transform="translate(-7 -7)" fill="#030001"/><path d="M299.322,40.042h3.454V11.31h11.272V8.048H288V11.31h11.32Z" transform="translate(-7 -7)" fill="#030001"/><path d="M282.965,27V8.048h-3.357V27.187q0,10.073-9.162,10.073-9.066,0-9.066-10.073V8.048h-3.453V27q0,6.523,3.285,10.025t9.234,3.5q5.947,0,9.234-3.5T282.965,27Z" transform="translate(-7 -7)" fill="#030001"/><path d="M250.252,36.78h-16.74V25.7h14.726V22.342H233.511V11.31h16.74V8.048H230.058V40.042h20.194Z" transform="translate(-7 -7)" fill="#030001"/><path d="M223.1,24.021q0-7.962-3.766-11.968T208.089,8.048H198.064V40.042h10.025Q223.1,40.042,223.1,24.021ZM201.518,36.78V11.262h6.331q6.092,0,8.9,3.07t2.806,9.689q0,6.62-2.806,9.689t-8.9,3.07Z" transform="translate(-7 -7)" fill="#030001"/><path d="M266.372,57.541a14.4,14.4,0,0,0-1.982-.81,12.44,12.44,0,0,1-1.63-.644,2.535,2.535,0,0,1-.918-.762,2.043,2.043,0,0,1-.341-1.23,1.766,1.766,0,0,1,.644-1.4,3,3,0,0,1,1.992-.556,5.757,5.757,0,0,1,1.376.156,4.73,4.73,0,0,1,1.23.5l.732.419V51.772a11.881,11.881,0,0,0-1.728-.723,6.052,6.052,0,0,0-1.689-.195,4.585,4.585,0,0,0-2.294.508,3.173,3.173,0,0,0-1.288,1.269,3.316,3.316,0,0,0-.4,1.562,3.264,3.264,0,0,0,.508,1.913A3.417,3.417,0,0,0,261.8,57.2a14.17,14.17,0,0,0,1.924.781q1.131.429,1.7.712a2.971,2.971,0,0,1,.976.781,1.913,1.913,0,0,1,.41,1.26,2.056,2.056,0,0,1-.7,1.64,3.2,3.2,0,0,1-2.129.6,7,7,0,0,1-2.372-.381,5.793,5.793,0,0,1-1.767-.966v1.523a12,12,0,0,0,1.933.859,7.347,7.347,0,0,0,2.148.253,4.378,4.378,0,0,0,3.29-1.073,3.651,3.651,0,0,0,1.025-2.617,3.107,3.107,0,0,0-.547-1.894A3.808,3.808,0,0,0,266.372,57.541Z" transform="translate(-7 -7)"/><path d="M249.942,56.75l-3.846-5.7h-1.7l4.862,7.048v5.975h1.406V58.1l4.842-7.048h-1.7Z" transform="translate(-7 -7)"/><path d="M231.745,64.072h8.22V62.745h-6.814v-4.51h5.994V56.868h-5.994V52.377h6.814V51.049h-8.22Z" transform="translate(-7 -7)"/><path d="M224.287,62.022l-7.771-10.973h-1.6V64.072h1.406V53.1l7.79,10.973h1.582V51.049h-1.406Z" transform="translate(-7 -7)"/><path d="M208.257,57.375a4.028,4.028,0,0,0,.8-2.538,3.792,3.792,0,0,0-.976-2.831,3.938,3.938,0,0,0-2.87-.957h-5.35V64.072h1.406V58.82h3.319l3.4,5.252h1.66l-3.534-5.408A3.418,3.418,0,0,0,208.257,57.375Zm-3.69.117h-3.3V52.377h3.788a2.6,2.6,0,0,1,2.011.654,2.769,2.769,0,0,1,.586,1.9,2.4,2.4,0,0,1-.742,1.913A3.523,3.523,0,0,1,204.567,57.492Z" transform="translate(-7 -7)"/><path d="M188.439,50.874a5.482,5.482,0,0,0-4.364,1.688A7.427,7.427,0,0,0,182.6,57.57a7.428,7.428,0,0,0,1.474,5.009,6.511,6.511,0,0,0,8.748,0A7.428,7.428,0,0,0,194.3,57.57a7.427,7.427,0,0,0-1.474-5.008A5.507,5.507,0,0,0,188.439,50.874ZM191.8,61.651a4.994,4.994,0,0,1-6.7,0,6.418,6.418,0,0,1-1.054-4.081A6.421,6.421,0,0,1,185.1,53.5a4.965,4.965,0,0,1,6.7,0,6.414,6.414,0,0,1,1.055,4.07A6.411,6.411,0,0,1,191.8,61.651Z" transform="translate(-7 -7)"/><path d="M168,52.377H172.6v11.7h1.406v-11.7H178.6V51.049H168Z" transform="translate(-7 -7)"/><path d="M153.88,52.377h4.608v11.7h1.406v-11.7h4.588V51.049h-10.6Z" transform="translate(-7 -7)"/><path d="M144.958,51.049l-5.194,13.023h1.523l1.562-4.061h5.623l1.562,4.061h1.5l-5.174-13.023Zm-1.582,7.615,2.285-5.955,2.284,5.955Z" transform="translate(-7 -7)"/><path d="M399.694,57.206,279.684,57.2a.693.693,0,1,0,0,1.387l120.01.007a.693.693,0,1,0,0-1.387Z" transform="translate(-7 -7)"/><path d="M128.34,57.206,8.33,57.2a.693.693,0,1,0,0,1.387l120.01.007a.693.693,0,1,0,0-1.387Z" transform="translate(-7 -7)"/></svg>