<?xml version="1.0" encoding="utf-8"?>
<!-- Generator: Adobe Illustrator 24.1.2, SVG Export Plug-In . SVG Version: 6.00 Build 0)  -->
<svg version="1.1" id="Layer_1" xmlns="http://www.w3.org/2000/svg" xmlns:xlink="http://www.w3.org/1999/xlink" x="0px" y="0px"
	 width="356.1px" height="64.8px" viewBox="0 0 356.1 64.8" style="enable-background:new 0 0 356.1 64.8;" xml:space="preserve">
<style type="text/css">
	.st0-logo{fill:#761113;}
	.st1-logo{fill:#FFFFFF;}
	.st2-logo{fill:#E2E2E2;}
</style>
<g>
	<g>
		<path d="M96.6,26.9l-5.3,20h-5.1l-7.8-27.2h5.3l5.3,20.9l5.6-20.9h3.8l5.6,20.9l5.3-20.9h5.3L107,46.9h-5.1L96.6,26.9z"/>
		<path d="M136.8,35.1h-14.1v11.8h-4.8V19.8h4.8v11.1h14.1V19.8h4.8v27.2h-4.8V35.1z"/>
		<path d="M147.4,19.8h4.8v27.2h-4.8V19.8z"/>
		<path d="M164.4,24h-8.2v-4.2h21.2V24h-8.2v23h-4.8V24z"/>
		<path d="M181.4,19.8H200V24h-13.8v7h13.6v4.2h-13.6v7.5H200v4.2h-18.6V19.8z"/>
		<path d="M215.3,19.8h4.8v23h12v4.2h-16.7V19.8z"/>
		<path d="M256.1,41.7h-12.9l-2,5.2H236l10.7-27.2h5.9l10.7,27.2H258L256.1,41.7z M244.5,37.5h10.2l-5.1-13.7L244.5,37.5z"/>
		<path d="M278.2,26.9l-5.3,20h-5.1l-7.8-27.2h5.3l5.3,20.9l5.6-20.9h3.8l5.6,20.9l5.3-20.9h5.3l-7.7,27.2h-5.1L278.2,26.9z"/>
		<path d="M308.6,32.5h6.3c3,0,4.7,2.1,4.7,4.5c0,2.4-1.7,4.5-4.7,4.5h-3.8v5.4h-2.5V32.5z M314.6,34.8h-3.4v4.6h3.4
			c1.4,0,2.5-0.9,2.5-2.3C317.1,35.7,316,34.8,314.6,34.8z"/>
		<path d="M321.7,32.5h2.5v12.2h6.3v2.2h-8.9V32.5z"/>
		<path d="M332.9,32.5h2.5v12.2h6.3v2.2h-8.9V32.5z"/>
		<path d="M342.7,39.7c0-4.4,3.3-7.4,7.4-7.4c3,0,4.8,1.5,5.9,3.2l-2.2,1.1c-0.7-1.2-2.1-2.1-3.7-2.1c-2.7,0-4.9,2.2-4.9,5.2
			c0,3,2.1,5.2,4.9,5.2c1.7,0,3-0.9,3.7-2.1l2.2,1.1c-1.1,1.7-2.9,3.2-5.9,3.2C346,47.2,342.7,44.2,342.7,39.7z"/>
	</g>
	<rect class="st0-logo" width="64.8" height="64.8"/>
	<g>
		<path class="st1-logo" d="M32.2,20.2l-8.4,30.9h-5.2L7.7,12.7H13l8.5,32l8.8-32h4l8.8,32l8.4-32h5.3L45.8,51.1h-5.2L32.2,20.2z"/>
	</g>
	<rect x="79.1" y="2.9" class="st2-logo" width="276.4" height="1.3"/>
	<rect x="79.1" y="63.3" class="st2-logo" width="276.4" height="1.3"/>
</g>
</svg>
