<?xml version="1.0" encoding="utf-8"?>
<!-- Generator: Adobe Illustrator 24.1.2, SVG Export Plug-In . SVG Version: 6.00 Build 0)  -->
<svg version="1.1" id="Layer_1" xmlns="http://www.w3.org/2000/svg" xmlns:xlink="http://www.w3.org/1999/xlink" x="0px" y="0px"
	 viewBox="0 0 206.7 40" style="enable-background:new 0 0 206.7 40;" xml:space="preserve">
<style type="text/css">
	.st0-news{fill-rule:evenodd;clip-rule:evenodd;fill:#008ECE;}
	.st1-news{fill-rule:evenodd;clip-rule:evenodd;}


</style>
<g>
	<path class="st0-news" d="M19.9,38c9.9,0,18-8,18-18c0-9.9-8-18-18-18c-9.9,0-18,8-18,18C1.9,29.9,10,38,19.9,38L19.9,38z"/>
	<path class="st1-news" d="M46.7,29.2c1.7,1.7,4.4,2.3,6.9,2.3c2.4,0,5.1-0.6,6.9-2.3c2.1-2,2.2-4.6,2.2-7.3V10.2h-5.4v10.9
		c0,2.7-0.2,5.6-3.6,5.6c-3.5,0-3.6-2.9-3.6-5.6V10.2h-5.4v11.6C44.5,24.5,44.6,27.2,46.7,29.2L46.7,29.2z"/>
	<polygon class="st1-news" points="121.4,10.2 107.1,10.2 107.1,14.8 111.6,14.8 111.6,30.9 116.9,30.9 116.9,14.8 121.4,14.8 
		121.4,10.2 	"/>
	<path class="st1-news" d="M133.7,9.5c-6,0-11.4,4.4-11.4,10.6c0,6.7,4.8,11.4,11.4,11.4c6.6,0,11.4-4.7,11.4-11.4
		C145.2,13.9,139.7,9.5,133.7,9.5L133.7,9.5z M127.9,20.2c0-2.9,2.6-5.5,5.8-5.5c3.2,0,5.8,2.6,5.8,5.5c0,3.6-2.6,6.2-5.8,6.2
		C130.5,26.4,127.9,23.8,127.9,20.2L127.9,20.2z"/>
	<path class="st1-news" d="M65,29.1c2.1,1.5,4.7,2.4,7.3,2.4c2.1,0,4.3-0.6,5.9-1.9c1.6-1.4,2.1-3.5,2.1-5.6c0-3.3-2.2-4.8-5.1-5.6
		l-1.4-0.4c-0.9-0.3-2.4-0.8-2.4-2c0-1.2,1.3-1.7,2.3-1.7c1.3,0,2.6,0.5,3.6,1.4l2.1-4.2c-1.8-1-4.4-1.7-6.5-1.7
		c-4.1,0-7.1,2.7-7.1,6.9c0,4,2.2,4.9,5.6,5.8c1.2,0.3,3.3,0.9,3.3,2.4c0,1.5-1.3,2.1-2.6,2.1c-1.8,0-3.4-1-4.8-2.1L65,29.1L65,29.1
		z"/>
	<path class="st1-news" d="M89,10.2l-8,20.7h5.7l1.4-3.6h7.4l1.3,3.6h5.7l-7.8-20.7H89L89,10.2z M89.6,23.2l2.2-6.6h0.1l2.2,6.6H89.6
		L89.6,23.2z"/>
	<path class="st1-news" d="M165.8,20.6c0-5.8-4.7-10.3-10.5-10.3h-7.6v20.7h7.6C161,30.9,165.8,26.4,165.8,20.6L165.8,20.6z M154.3,14.8
		c3.5,0,5.9,2.1,5.9,5.8c0,4-2.7,5.8-6,5.8H153V14.8H154.3L154.3,14.8z"/>
	<path class="st1-news" d="M174.4,10.2l-8,20.7h5.7l1.4-3.6h7.4l1.3,3.6l5.7,0l-7.8-20.7L174.4,10.2L174.4,10.2z M177.2,16.6L177.2,16.6
		l2.2,6.6H175L177.2,16.6L177.2,16.6z"/>
	<polygon class="st1-news" points="184.1,10.2 191.7,21 191.7,30.9 197.1,30.9 197.1,21 204.7,10.2 198.3,10.2 194.4,15.9 190.6,10.2 
		184.1,10.2 	"/>
</g>
</svg>
