<?xml version="1.0" encoding="utf-8"?>
<!-- Generator: Adobe Illustrator 24.1.2, SVG Export Plug-In . SVG Version: 6.00 Build 0)  -->
<svg version="1.1" id="Layer_1" xmlns="http://www.w3.org/2000/svg" xmlns:xlink="http://www.w3.org/1999/xlink" x="0px" y="0px"
	 width="206.7px" height="40px" viewBox="0 0 206.7 40" style="enable-background:new 0 0 206.7 40;" xml:space="preserve">
<style type="text/css">

	.st2-news{fill-rule:evenodd;clip-rule:evenodd;fill:#CC2031;}

</style>
<path class="st2-news" d="M69,7.7l-2.5,0h-3.9c-0.3,0-2.4,0-2.4,0l0,3.4l-0.4,0l0-3.8l0-1.6C61.1,5.8,66,5.8,71,5.8
	c5.9,0,9.6-0.1,11.1-0.1l0,1.7l0,3.9l-0.4,0c0-0.3-0.1-1.6-0.1-1.7c0,0-0.1-1.8-0.1-1.9l-1.7,0l-5,0l-1.9,0l0,23.9c0,0,0,1.6,0,1.9
	c0.2,0,2.1,0.2,2.4,0.2l0.1,0v0.7c-0.1,0-0.2,0-0.3,0c-1.1,0-2.8-0.1-4-0.1c-1.2,0-2.9,0.1-4.1,0.1c0,0-0.3,0-0.4,0l0-0.7
	c0,0,0.1,0,0.2,0c0.5,0,1.8-0.1,2.2-0.1l0.1,0L69,7.7L69,7.7z M91.7,34.3c-1,0-2.7-0.2-3.9-0.2c-1.2,0-2.9,0.2-4.1,0.2
	c-0.1,0-0.3,0-0.4,0v-0.7c0.2,0,1.3-0.1,1.6-0.1c0.3,0,0.7,0,0.8-0.1l0-2.1c0-4.4,0-16.8,0-22.4c0-0.6,0-2.1,0-2.3
	c-0.2,0-0.5-0.1-0.8-0.1c-0.3,0-1.5-0.1-1.7-0.1l0-0.7c1.2,0,2.9,0.1,4.3,0.1c1.3,0,3.1-0.1,4.5-0.1l0,0.7c-0.2,0-0.7,0-0.8,0
	c-0.4,0-1.5,0.2-1.8,0.2v2.2c0,5,0,18.2,0,22.6v1.4c0,0.3,0,0.5,0,0.6c0,0,0.7,0.1,0.9,0.1c0.3,0,1.6,0.1,1.6,0.1h0.1l0,0.7
	C92,34.3,91.8,34.3,91.7,34.3L91.7,34.3z M100.5,15.2c0,0-0.6,3.5-1.5,8.4c-0.5,2.7-1.5,9.3-1.6,9.8c0.6,0.1,1.7,0.2,2,0.2
	c0.1,0,0.2,0,0.3,0l0,0.7c-0.1,0-0.3,0-0.4,0c-1.1,0-1.9-0.1-3.1-0.1c-0.3,0-2,0.1-2.5,0.1c-0.2,0-0.6,0-0.6,0l0-0.7
	c0.1,0,0.2,0,0.2,0c0.5,0,1.3-0.1,2-0.2c0.1-0.3,0.6-3.6,0.8-4.8c0.7-3.9,2.9-16.7,3.1-18.5c0.2-1.5,0.4-3,0.5-4.5
	c0.6,0,1.5,0,1.5,0s1.9,5.9,2.2,6.7c0.3,0.9,6.1,15.8,6.1,15.8s2.7-6.4,5.1-13.3c0.5-1.4,1.1-3.2,1.6-4.7c0.7-2.2,1.5-4.5,1.5-4.5
	h1.5c0,0,0.4,2.6,0.5,3.8c0.4,3.4,2.9,17.3,3.7,21.8c0.2,1.1,0.4,2.1,0.4,2.1c0.3,0,1.3,0.1,1.9,0.2c0.1,0,0.5,0,0.5,0l0,0.7
	c0,0-0.3,0-0.4,0c-1.3,0-3.4-0.1-4.7-0.1c-1.1,0-2.2,0.1-3.4,0.1c-0.2,0-0.4,0-0.6,0v-0.7c0.1,0,0.2,0,0.2,0c0.6,0,2-0.2,2.2-0.2
	c0-0.2-0.1-1.1-0.2-2c-0.1-0.6-0.2-1.7-0.4-2.7c-0.3-2-1.8-10.5-2.3-12.8c-0.1-0.4-0.1-0.6-0.1-0.6s-4.7,12-5.6,14.3
	c-0.1,0.2-0.2,0.4-0.2,0.4c-0.9,2.3-1.7,4.3-1.7,4.3l-1.3,0l-7.3-18.7L100.5,15.2L100.5,15.2z M146.6,11.3l-0.4,0l0-0.2
	c0-0.5-0.1-1.9-0.2-3.1c0-0.1,0-0.2,0-0.2c-0.2,0-1.2,0-1.2-0.1c0,0-0.8,0-0.8,0c0,0-2.5,0-5,0c-1.7,0-3.4,0-4.5,0
	c-0.3,0-1.2,0-1.2,0l0,11.3l7.2,0c0,0,1.9-0.1,2-0.1c0.1,0,1.4-0.1,1.5-0.1c0,0,0-0.1,0-0.2c0.1-0.7,0.2-1.3,0.3-1.8
	c0,0,0-0.2,0-0.4l0.4,0c0,0.1,0,0.2,0,0.4c0,0.7-0.1,2.1-0.1,3c0,1.3,0,2.5,0,3.1c0,0.2,0,0.4,0,0.4h-0.5c0-0.1,0-0.1,0-0.2
	c-0.1-0.7-0.2-1.4-0.3-2.1c0,0,0-0.2,0-0.3c-0.4,0-0.8,0-1.2,0c-0.1,0-1.9,0-3.9,0c-0.8,0-2.3,0-2.9,0c-0.7,0-1.9,0-2.7,0.1l0,10.2
	l0,1.3l4.4,0.1l6.2,0c0,0,1.4-0.1,1.9,0c0.1,0,0.3,0,0.3,0c0-0.3,0.1-1,0.1-1.6c0-0.1,0.2-1.8,0.2-2.2l0.4,0c0,0.4-0.1,5.8-0.1,5.8
	c-0.7,0-2.9,0-5.5,0c-1.6,0-3.4,0-5.2,0c-1.4,0-2.9-0.1-4.2-0.1c-1.9,0-3.7,0.1-4.4,0.1c-0.2,0-0.4,0-0.5,0v-0.7h0.1
	c0.4,0,1.7-0.1,2.4-0.2c0-0.1,0-1.8,0-1.8l0-22.1c0-1,0-2.7,0-2.9c-0.4,0-0.5-0.1-0.6-0.1c-0.4-0.1-1.2-0.1-1.6-0.2
	c-0.1,0-0.2,0-0.3,0c0,0,0-0.7,0-0.7c0.1,0,0.3,0,0.6,0c0.7,0,2.1,0.1,3.8,0.1c1.1,0,2.7-0.1,4-0.1c1.7,0,3.1,0,4.7,0
	c2.7,0,5.1,0,6,0c0.3,0,0.4,0,0.4,0c0,0.1,0,0.1,0,0.2c0,0.2,0,0.6,0,1C146.6,8.3,146.6,10.6,146.6,11.3L146.6,11.3z"/>
</svg>
