<?xml version="1.0" encoding="utf-8"?>
<!-- Generator: Adobe Illustrator 24.1.2, SVG Export Plug-In . SVG Version: 6.00 Build 0)  -->
<svg version="1.1" id="Layer_1" xmlns="http://www.w3.org/2000/svg" xmlns:xlink="http://www.w3.org/1999/xlink" x="0px" y="0px"
	 width="206.7px" height="40px" viewBox="0 0 206.7 40" style="enable-background:new 0 0 206.7 40;" xml:space="preserve">
<style type="text/css">

	.st4-news{fill:#000105;}
	.st5-news{fill:#F27123;}
</style>
<g>
	<g>
		<polygon class="st4-news" points="69,14.6 76.5,14.6 76.5,35.2 83.6,35.2 83.6,14.6 91,14.6 91,8.4 69,8.4 		"/>
		<g>
			<path class="st4-news" d="M110.1,28.9c-0.9,0.4-1.9,0.6-2.9,0.6c-1.1,0-2.1-0.2-3-0.6c-0.9-0.4-1.6-0.9-2.2-1.6
				c-0.6-0.7-1.1-1.5-1.4-2.4c-0.3-0.9-0.5-1.9-0.5-3c0-1.1,0.2-2.1,0.5-3c0.3-0.9,0.8-1.7,1.4-2.4c0.6-0.7,1.4-1.2,2.2-1.6
				c0.9-0.4,1.9-0.6,3-0.6c1.1,0,2.1,0.2,2.9,0.6c0.9,0.4,1.6,0.9,2.2,1.6c0.6,0.7,1.1,1.5,1.4,2.4c0.3,0.9,0.5,1.9,0.5,3
				c0,1.1-0.2,2.1-0.5,3c-0.3,0.9-0.8,1.7-1.4,2.4C111.7,27.9,110.9,28.5,110.1,28.9 M117.3,11.9c-1.3-1.2-2.8-2.2-4.5-2.9
				c-1.7-0.7-3.7-1-5.7-1c-2,0-4,0.3-5.7,1c-1.7,0.7-3.3,1.6-4.5,2.9c-1.3,1.2-2.3,2.7-3,4.4c-0.7,1.7-1.1,3.6-1.1,5.6
				c0,2,0.4,3.9,1.1,5.6c0.7,1.7,1.7,3.2,3,4.4c1.3,1.2,2.8,2.2,4.5,2.9c1.7,0.7,3.6,1,5.7,1c2,0,3.9-0.3,5.7-1
				c1.7-0.7,3.3-1.6,4.5-2.9c1.3-1.2,2.3-2.7,3-4.4c0.7-1.7,1.1-3.6,1.1-5.6c0-2-0.4-3.9-1.1-5.6C119.6,14.6,118.6,13.1,117.3,11.9"
				/>
			<path class="st4-news" d="M144.2,21.8c0,1-0.2,1.9-0.5,2.8c-0.3,0.9-0.8,1.6-1.4,2.3c-0.6,0.7-1.4,1.2-2.3,1.6
				c-0.9,0.4-1.9,0.6-3.1,0.6h-4.2V14.6h4.2c1.2,0,2.3,0.2,3.2,0.5c0.9,0.4,1.7,0.9,2.3,1.5c0.6,0.6,1.1,1.4,1.4,2.3
				C144,19.9,144.2,20.8,144.2,21.8 M147.3,12c-1.3-1.1-2.8-2-4.6-2.7c-1.8-0.6-3.7-0.9-5.8-0.9h-11.2v26.8H137c2.1,0,4-0.3,5.8-0.9
				c1.8-0.6,3.3-1.5,4.6-2.7c1.3-1.2,2.3-2.6,3-4.2c0.7-1.6,1.1-3.5,1.1-5.6c0-2.1-0.4-4-1.1-5.6C149.6,14.6,148.6,13.2,147.3,12"/>
		</g>
		<path class="st4-news" d="M169.6,25.2h-6.5l3.2-9.6L169.6,25.2z M170.7,8.4H162l-10,26.6l-0.1,0.1h8l1.3-3.8h10.3l1.3,3.8h8L170.7,8.4
			L170.7,8.4z"/>
		<polygon class="st4-news" points="197.2,8.4 191.6,18.1 185.9,8.5 185.9,8.4 177.9,8.4 188.1,24.4 188.1,35.2 195.1,35.2 195.1,24.4 
			205.3,8.4 		"/>
	</g>
	<g>
		<g>
			<path class="st5-news" d="M32.3,4.3c-16.5,0-30,13-30.9,29.3c0,0.5,0,1.1,0,1.6h8c0-0.5,0-1,0.1-1.6c0.8-11.9,10.7-21.3,22.8-21.3
				c12.1,0,22.1,9.5,22.8,21.5c0,0.5,0,0.9,0,1.4h8c0-0.4,0-0.8,0-1.3C62.5,17.4,48.9,4.3,32.3,4.3"/>
			<path class="st5-news" d="M32.3,14.6c-10.9,0-19.9,8.5-20.6,19.2c0,0.4,0,0.9,0,1.4h8c0-0.5,0-1,0.1-1.5c0.7-6.3,6.1-11.1,12.5-11.1
				c6.5,0,11.8,4.9,12.5,11.2c0.1,0.4,0.1,0.9,0.1,1.4h8c0-0.4,0-0.9,0-1.3C52.1,23.1,43.2,14.6,32.3,14.6"/>
			<path class="st5-news" d="M32.3,24.9c-5,0-9.2,3.6-10.1,8.3C22,33.9,22,34.5,22,35.2h20.6c0-0.5,0-1-0.1-1.5
				C41.8,28.7,37.5,24.9,32.3,24.9"/>
		</g>
	</g>
</g>
</svg>
