<svg id="Layer_1" data-name="Layer 1" xmlns="http://www.w3.org/2000/svg" viewBox="0 0 65.6 49.8">
  <defs>
    <style>
      .cls-1 {
        fill: #c8c0bd;
      }
    </style>
  </defs>
  <g>
    <g>
      <polygon class="cls-1" points="0 36.7 0 39.7 3.6 39.7 3.6 49.6 7.1 49.6 7.1 39.7 10.6 39.7 10.6 36.7 0 36.7"/>
      <g>
        <path class="cls-1" d="M19.8,46.5a3.42,3.42,0,0,1-2.8,0,2.84,2.84,0,0,1-1.1-.8,4.13,4.13,0,0,1-.7-1.1,3.4,3.4,0,0,1-.2-1.4,5.9,5.9,0,0,1,.2-1.4,4.13,4.13,0,0,1,.7-1.1,4.44,4.44,0,0,1,1.1-.8,3.42,3.42,0,0,1,2.8,0,2.84,2.84,0,0,1,1.1.8,4.13,4.13,0,0,1,.7,1.1,3.18,3.18,0,0,1,.2,1.4,5.9,5.9,0,0,1-.2,1.4,4.13,4.13,0,0,1-.7,1.1,3.83,3.83,0,0,1-1.1.8m3.5-8.2a6.92,6.92,0,0,0-2.2-1.4,8.08,8.08,0,0,0-2.7-.5,7.63,7.63,0,0,0-2.7.5,6.36,6.36,0,0,0-2.2,1.4A8,8,0,0,0,12,40.4a7.54,7.54,0,0,0,0,5.4,5.11,5.11,0,0,0,1.5,2.1,8.26,8.26,0,0,0,2.2,1.4,8.08,8.08,0,0,0,2.7.5,7.63,7.63,0,0,0,2.7-.5,6.36,6.36,0,0,0,2.2-1.4,6,6,0,0,0,1.4-2.1,7.54,7.54,0,0,0,0-5.4,6,6,0,0,0-1.4-2.1"/>
        <path class="cls-1" d="M36.2,43.1a5.07,5.07,0,0,1-.2,1.3,4.13,4.13,0,0,1-.7,1.1,4.44,4.44,0,0,1-1.1.8,3.34,3.34,0,0,1-1.5.3h-2V39.7h2a3.34,3.34,0,0,1,1.5.3,4.13,4.13,0,0,1,1.1.7,2.38,2.38,0,0,1,.6,1.1,2.77,2.77,0,0,1,.3,1.3m1.5-4.7a6.11,6.11,0,0,0-2.2-1.3,8.25,8.25,0,0,0-2.8-.4H27.3V49.6h5.4a8.63,8.63,0,0,0,2.8-.4,6.11,6.11,0,0,0,2.2-1.3,7.49,7.49,0,0,0,1.5-2,7.54,7.54,0,0,0,0-5.4,6.64,6.64,0,0,0-1.5-2.1"/>
      </g>
      <path class="cls-1" d="M48.4,44.8H45.3l1.5-4.5Zm.5-8.1H44.7L39.9,49.5v.1h3.9l.6-1.8h4.9l.6,1.8h3.9L48.9,36.7Z"/>
      <polygon class="cls-1" points="61.7 36.7 59 41.3 56.2 36.7 52.3 36.7 57.3 44.4 57.3 49.6 60.7 49.6 60.7 44.4 65.6 36.7 61.7 36.7"/>
    </g>
    <g>
      <path class="cls-1" d="M8.5,30.9a24.05,24.05,0,0,1,48,.2v1.5h8.4V31.3A32.48,32.48,0,0,0,0,30.8v1.7H8.4a8.08,8.08,0,0,1,.1-1.6"/>
      <path class="cls-1" d="M19.3,31a13.18,13.18,0,0,1,26.2.1,6.6,6.6,0,0,1,.1,1.4H54V31.1A21.65,21.65,0,0,0,10.8,31v1.4h8.4c0-.4.1-.9.1-1.4"/>
      <path class="cls-1" d="M32.5,21.7a10.75,10.75,0,0,0-10.6,8.8,13.61,13.61,0,0,0-.2,2.1H43.3a7.57,7.57,0,0,0-.1-1.5,10.86,10.86,0,0,0-10.7-9.4"/>
    </g>
  </g>
</svg>
