<?xml version="1.0" encoding="utf-8"?>
<!-- Generator: Adobe Illustrator 24.1.2, SVG Export Plug-In . SVG Version: 6.00 Build 0)  -->
<svg version="1.1" id="Layer_1" xmlns="http://www.w3.org/2000/svg" xmlns:xlink="http://www.w3.org/1999/xlink" x="0px" y="0px"
	 width="87px" height="87px" viewBox="0 0 87 87" style="enable-background:new 0 0 87 87;" xml:space="preserve">
<style type="text/css">
	.st0{fill:#F9F9F9;}
	.st1{opacity:0.5;fill:#FFFFFF;enable-background:new    ;}
	.st2{fill-rule:evenodd;clip-rule:evenodd;fill:#D82629;}
</style>
<g>
	<circle class="st0" cx="44" cy="43" r="35"/>
	<path class="st1" d="M43.5,87C19.5,87,0,67.5,0,43.5C0,19.5,19.5,0,43.5,0C67.5,0,87,19.5,87,43.5C87,67.5,67.5,87,43.5,87z
		 M43.5,2C20.6,2,2,20.6,2,43.5C2,66.4,20.6,85,43.5,85C66.4,85,85,66.4,85,43.5C85,20.6,66.4,2,43.5,2z"/>
	<path id="Polygon_2" class="st2" d="M55,43.5L39,54V33L55,43.5z"/>
</g>
</svg>
