<?xml version="1.0" encoding="utf-8"?>
<!-- Generator: Adobe Illustrator 24.1.2, SVG Export Plug-In . SVG Version: 6.00 Build 0)  -->
<svg version="1.1" id="Layer_1" xmlns="http://www.w3.org/2000/svg" xmlns:xlink="http://www.w3.org/1999/xlink" x="0px" y="0px"
	 width="71.9px" height="67.3px" viewBox="0 0 71.9 67.3" style="enable-background:new 0 0 71.9 67.3;" xml:space="preserve">
<style type="text/css">
	.st0-results{fill:url(#SVGID_1_);}
	.st1{fill:url(#SVGID_2_);}
	.st2{fill:url(#SVGID_3_);}
	.st3{fill:url(#SVGID_4_);}
	.st4{fill:url(#SVGID_5_);}
</style>
<linearGradient id="SVGID_1_" gradientUnits="userSpaceOnUse" x1="35.9693" y1="8.6496" x2="35.9693" y2="58.6335">
	<stop  offset="0" style="stop-color:#D82629"/>
	<stop  offset="0.9995" style="stop-color:#9D0200"/>
</linearGradient>
<path class="st0-results" d="M19.8,38.9c0,1.2-1.8,2.2-4,2.2c-2.2,0-4-1-4-2.2s1.8-2.2,4-2.2C18,36.6,19.8,37.7,19.8,38.9z M56.1,36.6
	c-2.2,0-4,1-4,2.2s1.8,2.2,4,2.2c2.2,0,4-1,4-2.2S58.3,36.6,56.1,36.6z M70.6,38c0,6.4,0,12.4-5,13.4l-0.3,0.1v2.2
	c0,2.7-2.2,4.9-4.9,4.9H57c-2.7,0-4.9-2.2-4.9-4.9v-2.1H19.8v2.1c0,2.7-2.2,4.9-4.9,4.9h-3.5c-2.7,0-4.9-2.2-4.9-4.9v-2.2l-0.3-0.1
	c-5-1-5-7.1-5-13.4c0-3.9,1.7-6.8,5.8-9.8c2.5-1.9,4-2.9,4.9-3.4l0.1-0.1l5.3-12c1-2.3,3.7-4,6.2-4h22.7c2.5,0,5.2,1.8,6.2,4
	l5.3,11.8l0.2,0c1.2,0.3,3.4,1.1,6.7,3.6C68.9,31.2,70.6,34.1,70.6,38z M15.3,24.4h39.5l-4.7-10.6c-0.6-1.3-2.3-2.4-3.7-2.4H23.7
	c-1.4,0-3.1,1.1-3.7,2.4L15.3,24.4z M17.1,51.6H9.4v2.1c0,1.2,1,2.1,2.1,2.1H15c1.2,0,2.1-1,2.1-2.1V51.6z M62.6,51.6h-7.7v2.1
	c0,1.2,1,2.1,2.1,2.1h3.5c1.2,0,2.1-1,2.1-2.1V51.6z M67.8,38c0-3.1-1.2-5.1-4.7-7.6c-4.3-3.2-6-3.2-6-3.2l-43.7,0l-0.1,0
	c-0.4,0.2-1.6,1-4.6,3.2C5.3,33,4.1,35,4.1,38c0,7.9,0.3,10.9,3.9,10.9h56C67.5,48.9,67.8,45.9,67.8,38z M43,34.9H29
	c-0.8,0-1.4,0.6-1.4,1.4s0.6,1.4,1.4,1.4h14c0.8,0,1.4-0.6,1.4-1.4S43.7,34.9,43,34.9z M39.5,41.9h-7c-0.8,0-1.4,0.6-1.4,1.4
	s0.6,1.4,1.4,1.4h7c0.8,0,1.4-0.6,1.4-1.4S40.2,41.9,39.5,41.9z M6.2,23.6c0.8,0,1.4-0.6,1.4-1.4v-2.1h3.9c0.8,0,1.4-0.6,1.4-1.4
	s-0.6-1.4-1.4-1.4H6.2c-0.8,0-1.4,0.6-1.4,1.4v3.5C4.9,23,5.5,23.6,6.2,23.6z M58.7,20.1h3.9v2.1c0,0.8,0.6,1.4,1.4,1.4
	c0.8,0,1.4-0.6,1.4-1.4v-3.5c0-0.8-0.6-1.4-1.4-1.4h-5.2c-0.8,0-1.4,0.6-1.4,1.4S58,20.1,58.7,20.1z"/>
</svg>
