<?xml version="1.0" encoding="utf-8"?>
<!-- Generator: Adobe Illustrator 24.1.2, SVG Export Plug-In . SVG Version: 6.00 Build 0)  -->
<svg version="1.1" id="Layer_1" xmlns="http://www.w3.org/2000/svg" xmlns:xlink="http://www.w3.org/1999/xlink" x="0px" y="0px"
	 width="71.9px" height="67.3px" viewBox="0 0 71.9 67.3" style="enable-background:new 0 0 71.9 67.3;" xml:space="preserve">
<style type="text/css">
	.st0-results{fill:url(#SVGID_1_);}
	.st1{fill:url(#SVGID_2_);}
	.st2{fill:url(#SVGID_3_);}
	.st3{fill:url(#SVGID_4_);}
	.st4{fill:url(#SVGID_5_);}
</style>
<linearGradient id="SVGID_1_" gradientUnits="userSpaceOnUse" x1="35.9693" y1="8.4516" x2="35.9693" y2="58.8315">
	<stop  offset="0" style="stop-color:#D82629"/>
	<stop  offset="1" style="stop-color:#9D0200"/>
</linearGradient>
<path class="st0-results" d="M61.5,36.5l-0.2,0l-0.2-0.2l-1-2.1l0.7,0c2.2-0.1,4.3,0.3,6.3,1.2l0.1,0.1c0.2,0.2,0.5,0.3,0.8,0.3
	c0.3,0,0.6-0.1,0.9-0.3c0.3-0.2,0.4-0.5,0.5-0.9l0-0.1c-0.1-13.8-18-25.3-18.7-25.8c-0.2-0.1-0.4-0.2-0.7-0.2h-8.2
	c-0.6,0-1.1,0.4-1.2,1c-0.1,0.6,0.1,1.2,0.7,1.4c0,0,4.4,2.3,5.6,6.6l0.2,0.6l-0.6-0.1c-2.1-0.4-4-0.6-5.7-0.6
	c-6.5,0-11.4,2.5-14.1,7.4c-0.2,0.3-0.6,0.7-2.7,0.7c-5.4,0-6.3-1-6.8-2.1c-0.6-1.4-1.5-2.6-4.8-2.6c-6.5,0-10.4,3.7-11.8,7.1
	c-1.2,2.9-0.8,5.9,0.9,7.6c0.4,0.3,0.9,0.5,1.3,0.3c0.4-0.2,4.4-1.6,7.8-1.6c4,0,7.7,1.7,10.3,4.8l0.4,0.4l-2.5,0.8l-0.2-0.2
	c-2.1-2.2-5-3.5-8-3.5c-6.2,0-11.2,5-11.2,11.2s5,11.2,11.2,11.2c4.3,0,8.2-2.5,10.1-6.4l0.1-0.2l21.1,0c0.3,0,0.5-0.1,0.7-0.2
	l4.9-3.3c0.4-0.2,0.6-0.6,0.6-1.1c0-3.4,1.3-6.6,3.6-9.2l0.4-0.4l1.1,2.4l-0.2,0.2c-1.7,2-2.5,4.5-2.5,7c0,6.2,5,11.2,11.2,11.2
	s11.2-5,11.2-11.2C72.7,41.5,67.7,36.5,61.5,36.5z M63.3,46.8c0.1,0.2,0.2,0.4,0.2,0.5c0.1,0.5,0,1.1-0.3,1.5
	c-0.3,0.4-0.8,0.7-1.3,0.8c-0.1,0-0.2,0-0.4,0c-0.7,0-1.3-0.4-1.6-0.8c0-0.1-0.1-0.2-0.1-0.2c-0.1-0.1-0.1-0.2-0.2-0.5L54,36.4
	l0.3-0.2c0.9-0.6,2-1.1,3-1.4l0.3-0.1L63.3,46.8z M29.1,25.5c2.3-3.7,6.2-5.6,11.6-5.6c2.4,0,4.5,0.4,6.1,0.7l0.3,0.1l0,0.3
	c-0.2,3.2-1.5,10.5-9,10.5c-6.9,0-8.6-4-9-5.7l0-0.2L29.1,25.5z M17.3,52.8c-1.7,2.2-4.2,3.5-6.9,3.5c-4.8,0-8.6-3.9-8.6-8.6
	c0-4.8,3.9-8.6,8.6-8.6c1.7,0,3.4,0.5,4.9,1.6l0.6,0.4l-0.7,0.2c-3.3,1.1-6,2-6.1,2c-1.5,0.5-2.6,1.6-3.1,3.2
	c-0.3,1.2-0.2,2.4,0.4,3.5C7,51,8,51.7,9.2,52.1c0.3,0.1,0.7,0.1,1.1,0.1l0.1,0l7.3,0L17.3,52.8z M24,49.7l-13.7,0
	c-0.2,0-0.3,0-0.4-0.1c-0.5-0.1-1-0.5-1.2-0.9s-0.3-1-0.2-1.5c0.2-0.7,0.7-1.2,1.4-1.4c0.2,0,6.3-2.1,12.4-4.1l0.3-0.1l0.1,0.3
	c0.9,1.9,1.3,3.8,1.3,5.8V49.7z M45.4,46.8l0,0.2l-4.1,2.7H26.5v-2c0-8.9-7.2-16.1-16.1-16.1c-2.8,0-5.9,0.8-7.5,1.3L2.6,33
	l-0.1-0.3c-0.4-1.1-0.3-2.5,0.3-3.9c1.1-2.7,4.2-5.6,9.5-5.6c1.9,0,2.1,0.3,2.5,1.1c1.1,2.4,2.8,3.6,9.1,3.6c0.6,0,1.7,0,2.7-0.3
	l0.3-0.1l0.1,0.3c0.8,1.9,3.5,6.2,11,6.2c8.5,0,11.6-7.8,11.6-14.5c0-2.9-1.1-5.6-3.3-8L45.7,11h3.9l0.1,0.1
	c2.5,1.7,14.9,10.5,16.9,20.7l0.1,0.6l-0.6-0.2c-1.5-0.4-3-0.7-4.6-0.7C53,31.5,45.9,38.2,45.4,46.8z M61.5,56.3
	c-4.8,0-8.6-3.9-8.6-8.6c0-1.4,0.3-2.7,1-4l0.4-0.7l3,6.2c0.1,0.3,0.2,0.5,0.3,0.7c0,0,0.1,0.2,0.1,0.2c1,1.6,2.9,2.4,4.7,2.1
	c1.2-0.2,2.2-0.9,2.9-1.9c0.7-1,1-2.2,0.7-3.4c-0.1-0.4-0.2-0.7-0.4-1.1l0-0.1l-3.2-6.6l0.7,0.1c4,0.8,7,4.4,7,8.5
	C70.2,52.4,66.3,56.3,61.5,56.3z M43,39.4c0,0.7-0.6,1.3-1.3,1.3h-1.6c-0.7,0-1.3-0.6-1.3-1.3s0.6-1.3,1.3-1.3h1.6
	C42.4,38.1,43,38.7,43,39.4z M41.4,44.4c0,0.7-0.6,1.3-1.3,1.3h-4.9c-0.7,0-1.3-0.6-1.3-1.3s0.6-1.3,1.3-1.3h4.9
	C40.8,43.1,41.4,43.7,41.4,44.4z"/>
</svg>
