<?xml version="1.0" encoding="utf-8"?>
<!-- Generator: Adobe Illustrator 24.1.2, SVG Export Plug-In . SVG Version: 6.00 Build 0)  -->
<svg version="1.1" id="Layer_1" xmlns="http://www.w3.org/2000/svg" xmlns:xlink="http://www.w3.org/1999/xlink" x="0px" y="0px"
	 width="71.9px" height="67.3px" viewBox="0 0 71.9 67.3" style="enable-background:new 0 0 71.9 67.3;" xml:space="preserve">
<style type="text/css">
	.st0-results{fill:url(#SVGID_1_);}
	.st1{fill:url(#SVGID_2_);}
	.st2{fill:url(#SVGID_3_);}
	.st3{fill:url(#SVGID_4_);}
	.st4{fill:url(#SVGID_5_);}
</style>
<linearGradient id="SVGID_1_" gradientUnits="userSpaceOnUse" x1="35.9693" y1="5.1436" x2="35.9693" y2="62.1395">
	<stop  offset="0" style="stop-color:#D82629"/>
	<stop  offset="1" style="stop-color:#9D0200"/>
</linearGradient>
<path class="st0-results" d="M9.2,32.3c-1.1-3-1.7-6.1-1.7-8.9c0-11.4,6.6-18.2,17.6-18.2c5.6,0,8,2.3,10,4.2c0.2,0.2,0.4,0.4,0.5,0.5
	l0.3,0.3l0.3-0.3c0.2-0.2,0.3-0.3,0.6-0.5c1.9-1.9,4.3-4.2,10-4.2c10.9,0,17.6,7,17.6,18.2c0,2.9-0.6,5.9-1.7,8.9
	c-0.2,0.7-1,1-1.7,0.8c-0.3-0.1-0.6-0.4-0.7-0.7c-0.1-0.3-0.2-0.7,0-1c1-2.8,1.5-5.5,1.5-8c0-4.7-1.5-15.6-15-15.6
	c-4.6,0-6.3,1.7-8.2,3.5c-0.6,0.6-1.2,1.1-1.9,1.7c-0.5,0.4-1.1,0.4-1.6,0c-0.7-0.5-1.3-1.1-1.9-1.7c-1.8-1.8-3.6-3.5-8.2-3.5
	c-13.1,0-15,9.8-15,15.6c0,2.6,0.5,5.3,1.5,8c0.1,0.3,0.1,0.7,0,1c-0.1,0.3-0.4,0.6-0.7,0.7l0,0c-0.3,0.1-0.7,0.1-1,0
	C9.5,32.9,9.3,32.6,9.2,32.3z M51.3,45.5c-5.8,6.7-12.5,11.7-15,13.6L36,59.2L35.7,59c-2.6-1.8-9.2-6.9-15-13.6
	c-0.3-0.3-0.6-0.4-1-0.4c-0.3,0-0.6,0.1-0.9,0.3c-0.5,0.5-0.6,1.3-0.1,1.9c7.4,8.4,15.7,14.1,16.6,14.7c0.4,0.3,1,0.3,1.5,0
	c0.9-0.6,9.2-6.3,16.6-14.7c0.5-0.5,0.4-1.4-0.1-1.9C52.6,44.9,51.8,44.9,51.3,45.5z M63.2,37.8H49.7l-5.2-19c-0.2-0.6-0.7-1-1.3-1
	c-0.6,0-1.1,0.4-1.3,1l-6.2,24.6L30,26c-0.2-0.5-0.6-0.9-1.2-0.9c-0.8-0.1-1.1,0.5-1.3,0.8l-5.1,11.9H8.8c-0.7,0-1.3,0.6-1.3,1.3
	s0.6,1.3,1.3,1.3h14.5c0.5,0,1-0.3,1.2-0.8l4.1-9.5l6.2,18.5c0.2,0.5,0.7,0.9,1.2,0.9c0.6,0,1.1-0.4,1.3-1l6-24.1l4.1,15.1
	c0.2,0.6,0.7,1,1.3,1h14.5c0.7,0,1.3-0.6,1.3-1.3S63.9,37.8,63.2,37.8z"/>
</svg>
