<?xml version="1.0" encoding="utf-8"?>
<!-- Generator: Adobe Illustrator 24.1.2, SVG Export Plug-In . SVG Version: 6.00 Build 0)  -->
<svg version="1.1" id="Layer_1" xmlns="http://www.w3.org/2000/svg" xmlns:xlink="http://www.w3.org/1999/xlink" x="0px" y="0px"
	 width="71.9px" height="67.3px" viewBox="0 0 71.9 67.3" style="enable-background:new 0 0 71.9 67.3;" xml:space="preserve">
<style type="text/css">
	.st0-results{fill:url(#SVGID_1_);}
	.st1{fill:url(#SVGID_2_);}
	.st2{fill:url(#SVGID_3_);}
	.st3{fill:url(#SVGID_4_);}
	.st4{fill:url(#SVGID_5_);}
</style>
<g>
	<linearGradient id="SVGID_1_" gradientUnits="userSpaceOnUse" x1="35.9693" y1="3.639" x2="35.9693" y2="63.6441">
		<stop  offset="9.998198e-08" style="stop-color:#D82629"/>
		<stop  offset="1" style="stop-color:#9D0200"/>
	</linearGradient>
	<path class="st0-results" d="M49.4,63.6c-3.9,0-7-3.2-7-7c0-3.2,2.2-6,5.3-6.8c0.3-0.1,0.5-0.3,0.5-0.6v-4.1c0-0.3-0.3-0.6-0.6-0.6h-8.2
		c-0.2,0-0.4,0.1-0.5,0.2c-0.1,0.2-0.2,0.4-0.1,0.5c0.3,1.2,0.5,2.5,0.5,3.7c0,3.9-1.5,7.6-4.3,10.3c0,0,0,0,0,0c0,0,0,0,0,0
		c-2.8,2.8-6.5,4.3-10.4,4.3s-7.6-1.5-10.3-4.3c0,0,0,0,0,0c0,0,0,0,0,0c-2.8-2.8-4.3-6.5-4.3-10.4c0-3.6,1.3-7,3.7-9.7
		c0.1-0.1,0.2-0.3,0.2-0.4V10.7c0-2.5-2-4.5-4.5-4.5H7.3C6.5,6.2,6,5.6,6,4.9s0.6-1.3,1.3-1.3h1.9c3.9,0,7,3.2,7,7v2.3
		c0,0.2,0.1,0.4,0.3,0.5c0.1,0.1,0.2,0.1,0.4,0.1c0.1,0,0.1,0,0.2,0c0.6-0.2,1.2-0.3,1.7-0.3c2.8,0,5.1,2.3,5.1,5.1V26
		c0,0.3,0.3,0.6,0.6,0.6h24.9c0.7,0,1.3,0.6,1.3,1.3v13.4c0,0.3,0.3,0.6,0.6,0.6h3.8c0.5,0,0.9,0.3,1.2,0.7l5.2,10.4
		c0.1,0.2,0.3,0.3,0.6,0.3h2.6c0.7,0,1.3,0.6,1.3,1.3c0,0.7-0.6,1.3-1.3,1.3h-3.8c-0.5,0-0.9-0.3-1.2-0.7l-5.2-10.4
		c-0.1-0.2-0.3-0.3-0.6-0.3h-2.6c-0.3,0-0.6,0.3-0.6,0.6v4.1c0,0.3,0.2,0.5,0.5,0.6c3.1,0.8,5.3,3.6,5.3,6.8
		C56.4,60.5,53.2,63.6,49.4,63.6z M49.4,52.2c-2.5,0-4.5,2-4.5,4.5c0,2.5,2,4.5,4.5,4.5c2.5,0,4.5-2,4.5-4.5
		C53.8,54.2,51.8,52.2,49.4,52.2z M26.4,52.9c-0.1,0-0.2,0-0.2,0c-0.2,0.1-0.4,0.3-0.4,0.6v6.7c0,0.2,0.1,0.4,0.2,0.5
		c0.1,0.1,0.3,0.1,0.4,0.1c0,0,0.1,0,0.1,0c1.8-0.3,3.5-1,5-2.1c0.2-0.1,0.2-0.3,0.3-0.5c0-0.2-0.1-0.4-0.2-0.5l-4.7-4.7
		C26.7,53,26.6,52.9,26.4,52.9z M22.6,52.9c-0.2,0-0.3,0.1-0.4,0.2l-4.7,4.7c-0.1,0.1-0.2,0.3-0.2,0.5c0,0.2,0.1,0.4,0.3,0.5
		c1.5,1.1,3.2,1.8,5,2.1c0,0,0.1,0,0.1,0c0.1,0,0.3-0.1,0.4-0.1c0.1-0.1,0.2-0.3,0.2-0.5v-6.7c0-0.3-0.2-0.5-0.4-0.6
		C22.7,53,22.6,52.9,22.6,52.9z M29.1,50.2c-0.3,0-0.5,0.2-0.6,0.4c-0.1,0.2,0,0.5,0.1,0.7l4.7,4.7c0.1,0.1,0.3,0.2,0.4,0.2
		c0,0,0,0,0.1,0c0.2,0,0.4-0.1,0.5-0.3c1.1-1.5,1.8-3.2,2.1-5c0-0.2,0-0.4-0.1-0.5c-0.1-0.1-0.3-0.2-0.5-0.2H29.1z M13.2,50.2
		c-0.2,0-0.4,0.1-0.5,0.2c-0.1,0.1-0.2,0.3-0.1,0.5c0.3,1.8,1,3.5,2.1,5c0.1,0.2,0.3,0.2,0.5,0.3c0,0,0,0,0.1,0
		c0.2,0,0.3-0.1,0.4-0.2l4.7-4.7c0.2-0.2,0.2-0.4,0.1-0.7c-0.1-0.2-0.3-0.4-0.6-0.4H13.2z M33.8,41.7c-0.2,0-0.3,0.1-0.4,0.2
		l-4.7,4.7c-0.2,0.2-0.2,0.4-0.1,0.7c0.1,0.2,0.3,0.4,0.6,0.4h6.7c0.2,0,0.4-0.1,0.5-0.2c0.1-0.1,0.2-0.3,0.1-0.5
		c-0.3-1.8-1-3.5-2.1-5C34.2,41.8,34.1,41.7,33.8,41.7C33.9,41.7,33.9,41.7,33.8,41.7z M15.1,41.7c-0.2,0-0.4,0.1-0.5,0.3
		c-1.1,1.5-1.8,3.2-2.1,5c0,0.2,0,0.4,0.1,0.5c0.1,0.1,0.3,0.2,0.5,0.2h6.7c0.3,0,0.5-0.2,0.6-0.4c0.1-0.2,0-0.5-0.1-0.7l-4.7-4.7
		C15.5,41.7,15.3,41.7,15.1,41.7C15.1,41.7,15.1,41.7,15.1,41.7z M26.4,37c-0.1,0-0.3,0.1-0.4,0.1c-0.1,0.1-0.2,0.3-0.2,0.5v6.7
		c0,0.3,0.2,0.5,0.4,0.6c0.1,0,0.2,0,0.2,0c0.2,0,0.3-0.1,0.4-0.2l4.7-4.7c0.1-0.1,0.2-0.3,0.2-0.5c0-0.2-0.1-0.4-0.3-0.5
		c-1.5-1.1-3.2-1.8-5-2.1C26.5,37,26.4,37,26.4,37z M22.6,37c0,0-0.1,0-0.1,0c-1.8,0.3-3.5,1-5,2.1c-0.2,0.1-0.2,0.3-0.3,0.5
		c0,0.2,0.1,0.4,0.2,0.5l4.7,4.7c0.1,0.1,0.3,0.2,0.4,0.2c0.1,0,0.2,0,0.2,0c0.2-0.1,0.4-0.3,0.4-0.6v-6.7c0-0.2-0.1-0.4-0.2-0.5
		C22.9,37.1,22.7,37,22.6,37z M34.9,38.6c0.9,0.9,1.7,1.9,2.3,3c0.1,0.2,0.3,0.3,0.5,0.3c0,0,0,0,0,0c0.1,0,0.1,0,0.2,0h9.5
		c0.3,0,0.6-0.3,0.6-0.6v-3.8c0-0.3-0.3-0.6-0.6-0.6H34.6c-0.3,0-0.5,0.2-0.6,0.4c-0.1,0.2,0,0.5,0.2,0.7l0.1,0.1
		C34.5,38.2,34.7,38.4,34.9,38.6C34.8,38.6,34.8,38.6,34.9,38.6C34.9,38.6,34.9,38.6,34.9,38.6z M18.7,15.8c-1.4,0-2.5,1.1-2.5,2.5
		v17.4c0,0.2,0.1,0.4,0.3,0.5c0.1,0.1,0.2,0.1,0.3,0.1c0.1,0,0.2,0,0.3-0.1c1.1-0.7,2.4-1.2,3.7-1.5c0.3-0.1,0.5-0.3,0.5-0.6V18.3
		C21.3,16.9,20.1,15.8,18.7,15.8z M24.5,29.2c-0.3,0-0.6,0.3-0.6,0.6v3.8c0,0.3,0.3,0.6,0.6,0.6h23c0.3,0,0.6-0.3,0.6-0.6v-3.8
		c0-0.3-0.3-0.6-0.6-0.6H24.5z"/>
	<linearGradient id="SVGID_2_" gradientUnits="userSpaceOnUse" x1="49.3704" y1="55.3286" x2="49.3704" y2="57.9008">
		<stop  offset="9.998198e-08" style="stop-color:#D82629"/>
		<stop  offset="1" style="stop-color:#9D0200"/>
	</linearGradient>
	<circle class="st1" cx="49.4" cy="56.6" r="1.3"/>
</g>
</svg>
