<svg xmlns="http://www.w3.org/2000/svg" viewBox="0 0 86.8 28.8">
  <defs>
    <style>
      .cls-1 {
        fill: #cc2031;
        fill-rule: evenodd;
      }
    </style>
  </defs>
  <g id="Layer_2" data-name="Layer 2">
    <g id="Layer_1-2" data-name="Layer 1">
      <path class="cls-1" d="M9.2,2.1H.4V5.5H0V.1C1.3.2,6.2.2,11.2.2,17.1.2,20.8.1,22.3.1V5.7h-.4c0-.3-.1-1.6-.1-1.7s-.1-1.8-.1-1.9H13.1V27.9c.2,0,2.1.2,2.4.2h.1v.7h-.3c-1.1,0-2.8-.1-4-.1s-2.9.1-4.1.1H6.8v-.7H7c.5,0,1.8-.1,2.2-.1h.1L9.2,2.1ZM31.9,28.7c-1,0-2.7-.2-3.9-.2s-2.9.2-4.1.2h-.4V28c.2,0,1.3-.1,1.6-.1a1.72,1.72,0,0,0,.8-.1V1c-.2,0-.5-.1-.8-.1S23.6.8,23.4.8V.1c1.2,0,2.9.1,4.3.1S30.8.1,32.2.1V.8h-.8c-.4,0-1.5.2-1.8.2V27.8s.7.1.9.1,1.6.1,1.6.1h.1v.7ZM40.7,9.6s-.6,3.5-1.5,8.4c-.5,2.7-1.5,9.3-1.6,9.8a19.09,19.09,0,0,0,2,.2h.3v.7h-.4c-1.1,0-1.9-.1-3.1-.1-.3,0-2,.1-2.5.1h-.6V28h.2a16.83,16.83,0,0,0,2-.2c.1-.3.6-3.6.8-4.8.7-3.9,2.9-16.7,3.1-18.5.2-1.5.4-3,.5-4.5h1.5s1.9,5.9,2.2,6.7,6.1,15.8,6.1,15.8,2.7-6.4,5.1-13.3c.5-1.4,1.1-3.2,1.6-4.7C57.1,2.3,57.9,0,57.9,0h1.5s.4,2.6.5,3.8c.4,3.4,2.9,17.3,3.7,21.8.2,1.1.4,2.1.4,2.1a17.63,17.63,0,0,1,1.9.2h.5v.7H66c-1.3,0-3.4-.1-4.7-.1-1.1,0-2.2.1-3.4.1h-.6v-.7h.2c.6,0,2-.2,2.2-.2,0-.2-.1-1.1-.2-2-.1-.6-.2-1.7-.4-2.7-.3-2-1.8-10.5-2.3-12.8a2.8,2.8,0,0,1-.1-.6L51.1,23.9l-.2.4c-.9,2.3-1.7,4.3-1.7,4.3H47.9L40.6,9.9l.1-.3ZM86.8,5.7h-.4V5.5c0-.5-.1-1.9-.2-3.1V2.2c-.2,0-1.2,0-1.2-.1H73.5V13.4h7.2l2-.1,1.5-.1V13q.15-1,.3-1.8v-.4h.4v.4c0,.7-.1,2.1-.1,3v3.5h-.5v-.2L84,15.4v-.3H76a25.28,25.28,0,0,0-2.7.1V26.7l4.4.1h6.2a11.58,11.58,0,0,1,1.9,0h.3c0-.3.1-1,.1-1.6,0-.1.2-1.8.2-2.2h.4c0,.4-.1,5.8-.1,5.8H76c-1.4,0-2.9-.1-4.2-.1-1.9,0-3.7.1-4.4.1h-.5v-.7H67c.4,0,1.7-.1,2.4-.2V1.1a2.18,2.18,0,0,1-.6-.1C68.4.9,67.6.9,67.2.8h-.3V.1h.6c.7,0,2.1.1,3.8.1,1.1,0,2.7-.1,4-.1H86.4V1.3a19.19,19.19,0,0,1,.4,4.4Z"/>
    </g>
  </g>
</svg>
